<svg xmlns="http://www.w3.org/2000/svg" xmlns:xlink="http://www.w3.org/1999/xlink" width="500" zoomAndPan="magnify" viewBox="0 0 375 374.999991" height="500" preserveAspectRatio="xMidYMid meet" version="1.0"><defs><g/><clipPath id="bf117a717d"><path d="M 12 4 L 61 4 L 61 70 L 12 70 Z M 12 4 " clip-rule="nonzero"/></clipPath><clipPath id="f8e7f79a40"><path d="M 44.1875 0.222656 L 65.109375 12.539062 L 29.125 73.667969 L 8.203125 61.351562 Z M 44.1875 0.222656 " clip-rule="nonzero"/></clipPath><clipPath id="db3e2ee74f"><path d="M 54.648438 6.378906 C 57.421875 8.011719 59.433594 10.679688 60.242188 13.796875 C 61.046875 16.914062 60.582031 20.222656 58.949219 23 L 35.296875 63.179688 C 33.664062 65.957031 30.996094 67.96875 27.878906 68.773438 C 24.761719 69.582031 21.453125 69.117188 18.679688 67.484375 C 15.90625 65.851562 13.894531 63.183594 13.085938 60.066406 C 12.277344 56.949219 12.742188 53.640625 14.375 50.867188 L 38.027344 10.683594 C 39.660156 7.910156 42.332031 5.894531 45.445312 5.089844 C 48.5625 4.28125 51.871094 4.746094 54.648438 6.378906 Z M 54.648438 6.378906 " clip-rule="nonzero"/></clipPath><clipPath id="e0474a808b"><path d="M 0.0390625 0.160156 L 49 0.160156 L 49 65.679688 L 0.0390625 65.679688 Z M 0.0390625 0.160156 " clip-rule="nonzero"/></clipPath><clipPath id="92703fb29a"><path d="M 32.1875 -3.777344 L 53.109375 8.539062 L 17.125 69.667969 L -3.796875 57.351562 Z M 32.1875 -3.777344 " clip-rule="nonzero"/></clipPath><clipPath id="34284e5d81"><path d="M 42.648438 2.378906 C 45.421875 4.011719 47.433594 6.679688 48.242188 9.796875 C 49.046875 12.914062 48.582031 16.222656 46.949219 19 L 23.296875 59.179688 C 21.664062 61.957031 18.996094 63.96875 15.878906 64.773438 C 12.761719 65.582031 9.453125 65.117188 6.679688 63.484375 C 3.90625 61.851562 1.894531 59.183594 1.085938 56.066406 C 0.277344 52.949219 0.742188 49.640625 2.375 46.867188 L 26.027344 6.683594 C 27.660156 3.910156 30.332031 1.894531 33.445312 1.089844 C 36.5625 0.28125 39.871094 0.746094 42.648438 2.378906 Z M 42.648438 2.378906 " clip-rule="nonzero"/></clipPath><clipPath id="3e5b21fa86"><rect x="0" width="49" y="0" height="66"/></clipPath><clipPath id="e3f94cd4bc"><path d="M 0.644531 11.867188 L 25.65625 11.867188 L 25.65625 36.878906 L 0.644531 36.878906 Z M 0.644531 11.867188 " clip-rule="nonzero"/></clipPath><clipPath id="6dc18c9f90"><path d="M 13.152344 11.867188 C 6.242188 11.867188 0.644531 17.46875 0.644531 24.375 C 0.644531 31.28125 6.242188 36.878906 13.152344 36.878906 C 20.058594 36.878906 25.65625 31.28125 25.65625 24.375 C 25.65625 17.46875 20.058594 11.867188 13.152344 11.867188 Z M 13.152344 11.867188 " clip-rule="nonzero"/></clipPath><clipPath id="886822f8af"><path d="M 0.644531 0.867188 L 25.65625 0.867188 L 25.65625 25.878906 L 0.644531 25.878906 Z M 0.644531 0.867188 " clip-rule="nonzero"/></clipPath><clipPath id="6011f6b134"><path d="M 13.152344 0.867188 C 6.242188 0.867188 0.644531 6.46875 0.644531 13.375 C 0.644531 20.28125 6.242188 25.878906 13.152344 25.878906 C 20.058594 25.878906 25.65625 20.28125 25.65625 13.375 C 25.65625 6.46875 20.058594 0.867188 13.152344 0.867188 Z M 13.152344 0.867188 " clip-rule="nonzero"/></clipPath><clipPath id="cc0c28060a"><rect x="0" width="26" y="0" height="26"/></clipPath><clipPath id="50665c95d9"><rect x="0" width="244" y="0" height="74"/></clipPath><clipPath id="36b215685a"><path d="M 41 4 L 90 4 L 90 70 L 41 70 Z M 41 4 " clip-rule="nonzero"/></clipPath><clipPath id="e40010b30e"><path d="M 72.714844 0.21875 L 93.472656 12.4375 L 57.484375 73.578125 L 36.722656 61.359375 Z M 72.714844 0.21875 " clip-rule="nonzero"/></clipPath><clipPath id="6f84f21e18"><path d="M 83.09375 6.328125 C 85.847656 7.949219 87.84375 10.597656 88.644531 13.6875 C 89.445312 16.78125 88.984375 20.0625 87.363281 22.816406 L 63.613281 63.164062 C 61.992188 65.914062 59.347656 67.910156 56.253906 68.710938 C 53.160156 69.511719 49.878906 69.050781 47.125 67.433594 C 44.371094 65.8125 42.375 63.164062 41.574219 60.070312 C 40.773438 56.980469 41.234375 53.695312 42.855469 50.941406 L 66.605469 10.597656 C 68.222656 7.84375 70.871094 5.847656 73.964844 5.046875 C 77.058594 4.246094 80.339844 4.707031 83.09375 6.328125 Z M 83.09375 6.328125 " clip-rule="nonzero"/></clipPath><clipPath id="8b210897e8"><path d="M 0 0.160156 L 48.558594 0.160156 L 48.558594 65.679688 L 0 65.679688 Z M 0 0.160156 " clip-rule="nonzero"/></clipPath><clipPath id="e6604baa7e"><path d="M 31.714844 -3.78125 L 52.472656 8.4375 L 16.484375 69.578125 L -4.277344 57.359375 Z M 31.714844 -3.78125 " clip-rule="nonzero"/></clipPath><clipPath id="adb901618e"><path d="M 42.09375 2.328125 C 44.847656 3.949219 46.84375 6.597656 47.644531 9.6875 C 48.445312 12.78125 47.984375 16.0625 46.363281 18.816406 L 22.613281 59.164062 C 20.992188 61.914062 18.347656 63.910156 15.253906 64.710938 C 12.160156 65.511719 8.878906 65.050781 6.125 63.433594 C 3.371094 61.8125 1.375 59.164062 0.574219 56.070312 C -0.226562 52.980469 0.234375 49.695312 1.855469 46.941406 L 25.605469 6.597656 C 27.222656 3.84375 29.871094 1.847656 32.964844 1.046875 C 36.058594 0.246094 39.339844 0.707031 42.09375 2.328125 Z M 42.09375 2.328125 " clip-rule="nonzero"/></clipPath><clipPath id="9aebfd634f"><rect x="0" width="49" y="0" height="66"/></clipPath><clipPath id="4d5a67a271"><path d="M 45 45 L 94 45 L 94 111 L 45 111 Z M 45 45 " clip-rule="nonzero"/></clipPath><clipPath id="1766bb8023"><path d="M 77.34375 41.367188 L 98.265625 53.679688 L 62.28125 114.8125 L 41.359375 102.496094 Z M 77.34375 41.367188 " clip-rule="nonzero"/></clipPath><clipPath id="7046c142ce"><path d="M 87.804688 47.523438 C 90.578125 49.15625 92.59375 51.824219 93.398438 54.941406 C 94.207031 58.058594 93.742188 61.367188 92.109375 64.140625 L 68.457031 104.324219 C 66.824219 107.097656 64.15625 109.109375 61.039062 109.917969 C 57.921875 110.726562 54.613281 110.261719 51.835938 108.628906 C 49.0625 106.996094 47.050781 104.328125 46.242188 101.210938 C 45.4375 98.09375 45.902344 94.785156 47.535156 92.007812 L 71.1875 51.828125 C 72.820312 49.050781 75.488281 47.039062 78.605469 46.234375 C 81.722656 45.425781 85.03125 45.890625 87.804688 47.523438 Z M 87.804688 47.523438 " clip-rule="nonzero"/></clipPath><clipPath id="5423462048"><path d="M 0.398438 0.199219 L 49 0.199219 L 49 65.960938 L 0.398438 65.960938 Z M 0.398438 0.199219 " clip-rule="nonzero"/></clipPath><clipPath id="d1276c4857"><path d="M 32.34375 -3.632812 L 53.265625 8.679688 L 17.28125 69.8125 L -3.640625 57.496094 Z M 32.34375 -3.632812 " clip-rule="nonzero"/></clipPath><clipPath id="95d9975d37"><path d="M 42.804688 2.523438 C 45.578125 4.15625 47.59375 6.824219 48.398438 9.941406 C 49.207031 13.058594 48.742188 16.367188 47.109375 19.140625 L 23.457031 59.324219 C 21.824219 62.097656 19.15625 64.109375 16.039062 64.917969 C 12.921875 65.726562 9.613281 65.261719 6.835938 63.628906 C 4.0625 61.996094 2.050781 59.328125 1.242188 56.210938 C 0.4375 53.09375 0.902344 49.785156 2.535156 47.007812 L 26.1875 6.828125 C 27.820312 4.050781 30.488281 2.039062 33.605469 1.234375 C 36.722656 0.425781 40.03125 0.890625 42.804688 2.523438 Z M 42.804688 2.523438 " clip-rule="nonzero"/></clipPath><clipPath id="7dc7351db8"><rect x="0" width="49" y="0" height="66"/></clipPath><clipPath id="698796544e"><path d="M 343.503906 67.835938 L 363.976562 67.835938 L 363.976562 88.308594 L 343.503906 88.308594 Z M 343.503906 67.835938 " clip-rule="nonzero"/></clipPath><clipPath id="8c1771c4ae"><path d="M 353.738281 67.835938 C 348.085938 67.835938 343.503906 72.417969 343.503906 78.070312 C 343.503906 83.726562 348.085938 88.308594 353.738281 88.308594 C 359.394531 88.308594 363.976562 83.726562 363.976562 78.070312 C 363.976562 72.417969 359.394531 67.835938 353.738281 67.835938 Z M 353.738281 67.835938 " clip-rule="nonzero"/></clipPath><clipPath id="7dfa1247e0"><path d="M 0.503906 0.835938 L 20.976562 0.835938 L 20.976562 21.308594 L 0.503906 21.308594 Z M 0.503906 0.835938 " clip-rule="nonzero"/></clipPath><clipPath id="695ec399b9"><path d="M 10.738281 0.835938 C 5.085938 0.835938 0.503906 5.417969 0.503906 11.070312 C 0.503906 16.726562 5.085938 21.308594 10.738281 21.308594 C 16.394531 21.308594 20.976562 16.726562 20.976562 11.070312 C 20.976562 5.417969 16.394531 0.835938 10.738281 0.835938 Z M 10.738281 0.835938 " clip-rule="nonzero"/></clipPath><clipPath id="402d4af926"><rect x="0" width="21" y="0" height="22"/></clipPath><clipPath id="5661640d73"><rect x="0" width="365" y="0" height="116"/></clipPath></defs><g transform="matrix(1, 0, 0, 1, 5, 130)"><g clip-path="url(#5661640d73)"><g clip-path="url(#bf117a717d)"><g clip-path="url(#f8e7f79a40)"><g clip-path="url(#db3e2ee74f)"><g transform="matrix(1, 0, 0, 1, 12, 4)"><g clip-path="url(#3e5b21fa86)"><g clip-path="url(#e0474a808b)"><g clip-path="url(#92703fb29a)"><g clip-path="url(#34284e5d81)"><path fill="#ffffff" d="M 32.1875 -3.777344 L 53.109375 8.539062 L 17.125 69.667969 L -3.796875 57.351562 Z M 32.1875 -3.777344 " fill-opacity="1" fill-rule="nonzero"/></g></g></g></g></g></g></g></g><g clip-path="url(#e3f94cd4bc)"><g clip-path="url(#6dc18c9f90)"><g transform="matrix(1, 0, 0, 1, 0, 11)"><g clip-path="url(#cc0c28060a)"><g clip-path="url(#886822f8af)"><g clip-path="url(#6011f6b134)"><path fill="#c4ff0d" d="M 0.644531 0.867188 L 25.65625 0.867188 L 25.65625 25.878906 L 0.644531 25.878906 Z M 0.644531 0.867188 " fill-opacity="1" fill-rule="nonzero"/></g></g></g></g></g></g><g transform="matrix(1, 0, 0, 1, 98, 26)"><g clip-path="url(#50665c95d9)"><g fill="#ffffff" fill-opacity="1"><g transform="translate(0.268465, 58.875484)"><g><path d="M 20.828125 1.265625 C 17.765625 1.265625 15.097656 0.851562 12.828125 0.03125 C 10.566406 -0.78125 8.695312 -1.875 7.21875 -3.25 C 5.738281 -4.632812 4.640625 -6.191406 3.921875 -7.921875 C 3.203125 -9.660156 2.84375 -11.453125 2.84375 -13.296875 L 12.28125 -13.265625 C 12.363281 -11.367188 13.125 -9.773438 14.5625 -8.484375 C 16 -7.191406 18.113281 -6.546875 20.90625 -6.546875 C 23.457031 -6.546875 25.335938 -7.035156 26.546875 -8.015625 C 27.753906 -8.992188 28.359375 -10.269531 28.359375 -11.84375 C 28.359375 -13.03125 28.015625 -13.960938 27.328125 -14.640625 C 26.648438 -15.316406 25.65625 -15.851562 24.34375 -16.25 C 23.03125 -16.644531 21.425781 -16.976562 19.53125 -17.25 C 17.519531 -17.519531 15.613281 -17.9375 13.8125 -18.5 C 12.007812 -19.070312 10.414062 -19.859375 9.03125 -20.859375 C 7.644531 -21.867188 6.550781 -23.132812 5.75 -24.65625 C 4.957031 -26.175781 4.5625 -28.019531 4.5625 -30.1875 C 4.5625 -32.757812 5.160156 -35.007812 6.359375 -36.9375 C 7.566406 -38.863281 9.34375 -40.367188 11.6875 -41.453125 C 14.039062 -42.535156 16.910156 -43.078125 20.296875 -43.078125 C 23.660156 -43.078125 26.609375 -42.515625 29.140625 -41.390625 C 31.679688 -40.265625 33.65625 -38.691406 35.0625 -36.671875 C 36.476562 -34.648438 37.1875 -32.3125 37.1875 -29.65625 L 27.546875 -29.734375 C 27.429688 -31.285156 26.769531 -32.554688 25.5625 -33.546875 C 24.351562 -34.535156 22.613281 -35.03125 20.34375 -35.03125 C 18.226562 -35.03125 16.679688 -34.570312 15.703125 -33.65625 C 14.722656 -32.75 14.234375 -31.660156 14.234375 -30.390625 C 14.234375 -29.359375 14.460938 -28.523438 14.921875 -27.890625 C 15.390625 -27.253906 16.253906 -26.722656 17.515625 -26.296875 C 18.773438 -25.878906 20.597656 -25.476562 22.984375 -25.09375 C 25.148438 -24.769531 27.171875 -24.335938 29.046875 -23.796875 C 30.921875 -23.253906 32.554688 -22.515625 33.953125 -21.578125 C 35.347656 -20.640625 36.4375 -19.429688 37.21875 -17.953125 C 38.007812 -16.484375 38.40625 -14.632812 38.40625 -12.40625 C 38.40625 -9.34375 37.640625 -6.800781 36.109375 -4.78125 C 34.578125 -2.757812 32.488281 -1.242188 29.84375 -0.234375 C 27.195312 0.765625 24.191406 1.265625 20.828125 1.265625 Z M 20.828125 1.265625 "/></g></g></g><g fill="#ffffff" fill-opacity="1"><g transform="translate(36.195438, 58.875484)"><g><path d="M 31.484375 0 L 22.984375 0 C 21.734375 0 20.453125 -0.113281 19.140625 -0.34375 C 17.828125 -0.570312 16.570312 -1 15.375 -1.625 C 14.1875 -2.25 13.125 -3.148438 12.1875 -4.328125 C 11.25 -5.515625 10.5 -7.046875 9.9375 -8.921875 C 9.382812 -10.804688 9.109375 -13.132812 9.109375 -15.90625 L 9.109375 -33.359375 L 0.453125 -33.359375 L 0.453125 -41.8125 L 9.109375 -41.8125 L 9.109375 -54.0625 L 18.953125 -54.140625 L 18.953125 -41.8125 L 31.484375 -41.8125 L 31.484375 -33.359375 L 18.953125 -33.359375 L 18.953125 -15.453125 C 18.953125 -13.503906 19.238281 -12 19.8125 -10.9375 C 20.382812 -9.882812 21.132812 -9.160156 22.0625 -8.765625 C 23 -8.367188 23.984375 -8.171875 25.015625 -8.171875 L 31.484375 -8.171875 Z M 31.484375 0 "/></g></g></g><g fill="#ffffff" fill-opacity="1"><g transform="translate(65.044435, 58.875484)"><g><path d="M 22.5 1.265625 C 19.675781 1.265625 17.0625 0.695312 14.65625 -0.4375 C 12.257812 -1.582031 10.171875 -3.171875 8.390625 -5.203125 C 6.617188 -7.242188 5.242188 -9.601562 4.265625 -12.28125 C 3.296875 -14.96875 2.8125 -17.84375 2.8125 -20.90625 C 2.8125 -23.96875 3.304688 -26.832031 4.296875 -29.5 C 5.285156 -32.175781 6.664062 -34.53125 8.4375 -36.5625 C 10.21875 -38.601562 12.300781 -40.195312 14.6875 -41.34375 C 17.070312 -42.5 19.660156 -43.078125 22.453125 -43.078125 C 25.867188 -43.078125 28.90625 -42.335938 31.5625 -40.859375 C 34.21875 -39.378906 36.210938 -37.335938 37.546875 -34.734375 L 37.546875 -41.8125 L 46.90625 -41.8125 L 46.90625 0 L 37.546875 0 L 37.546875 -7.03125 C 36.191406 -4.425781 34.191406 -2.390625 31.546875 -0.921875 C 28.898438 0.535156 25.882812 1.265625 22.5 1.265625 Z M 24.859375 -7.84375 C 26.566406 -7.84375 28.164062 -8.175781 29.65625 -8.84375 C 31.144531 -9.507812 32.453125 -10.429688 33.578125 -11.609375 C 34.703125 -12.796875 35.578125 -14.179688 36.203125 -15.765625 C 36.828125 -17.347656 37.140625 -19.0625 37.140625 -20.90625 C 37.140625 -22.726562 36.820312 -24.429688 36.1875 -26.015625 C 35.550781 -27.597656 34.675781 -28.984375 33.5625 -30.171875 C 32.445312 -31.367188 31.144531 -32.300781 29.65625 -32.96875 C 28.164062 -33.632812 26.566406 -33.96875 24.859375 -33.96875 C 22.609375 -33.96875 20.550781 -33.425781 18.6875 -32.34375 C 16.832031 -31.257812 15.347656 -29.738281 14.234375 -27.78125 C 13.117188 -25.832031 12.5625 -23.539062 12.5625 -20.90625 C 12.5625 -18.195312 13.125 -15.863281 14.25 -13.90625 C 15.382812 -11.957031 16.882812 -10.457031 18.75 -9.40625 C 20.625 -8.363281 22.660156 -7.84375 24.859375 -7.84375 Z M 24.859375 -7.84375 "/></g></g></g><g fill="#ffffff" fill-opacity="1"><g transform="translate(112.890073, 58.875484)"><g><path d="M 24.40625 1.265625 C 21.289062 1.265625 18.414062 0.6875 15.78125 -0.46875 C 13.15625 -1.625 10.867188 -3.21875 8.921875 -5.25 C 6.984375 -7.28125 5.476562 -9.640625 4.40625 -12.328125 C 3.34375 -15.015625 2.8125 -17.875 2.8125 -20.90625 C 2.8125 -23.945312 3.34375 -26.800781 4.40625 -29.46875 C 5.476562 -32.144531 6.984375 -34.503906 8.921875 -36.546875 C 10.867188 -38.597656 13.15625 -40.195312 15.78125 -41.34375 C 18.414062 -42.5 21.289062 -43.078125 24.40625 -43.078125 C 28.007812 -43.078125 31.226562 -42.378906 34.0625 -40.984375 C 36.90625 -39.585938 39.28125 -37.679688 41.1875 -35.265625 C 43.101562 -32.859375 44.453125 -30.117188 45.234375 -27.046875 L 35.1875 -27.046875 C 34.269531 -29.378906 32.847656 -31.109375 30.921875 -32.234375 C 28.992188 -33.359375 26.835938 -33.921875 24.453125 -33.921875 C 22.929688 -33.921875 21.460938 -33.628906 20.046875 -33.046875 C 18.640625 -32.460938 17.375 -31.613281 16.25 -30.5 C 15.125 -29.394531 14.226562 -28.035156 13.5625 -26.421875 C 12.894531 -24.804688 12.5625 -22.96875 12.5625 -20.90625 C 12.5625 -18.84375 12.894531 -17.003906 13.5625 -15.390625 C 14.226562 -13.785156 15.125 -12.414062 16.25 -11.28125 C 17.375 -10.15625 18.648438 -9.300781 20.078125 -8.71875 C 21.503906 -8.132812 22.960938 -7.84375 24.453125 -7.84375 C 26.835938 -7.84375 28.992188 -8.429688 30.921875 -9.609375 C 32.847656 -10.796875 34.269531 -12.691406 35.1875 -15.296875 L 45.203125 -15.296875 C 44.492188 -12.066406 43.175781 -9.203125 41.25 -6.703125 C 39.320312 -4.210938 36.925781 -2.257812 34.0625 -0.84375 C 31.207031 0.5625 27.988281 1.265625 24.40625 1.265625 Z M 24.40625 1.265625 "/></g></g></g><g fill="#ffffff" fill-opacity="1"><g transform="translate(155.44757, 58.875484)"><g><path d="M 44.140625 0 L 33.078125 0 L 22.21875 -18.828125 L 15.625 -11.640625 L 15.625 0 L 5.78125 0 L 5.78125 -57.28125 L 15.625 -57.28125 L 15.625 -22.21875 L 30.34375 -41.8125 L 42.34375 -41.8125 L 29.375 -25.265625 Z M 44.140625 0 "/></g></g></g><g fill="#c4ff0d" fill-opacity="1"><g transform="translate(195.209862, 58.875484)"><g><path d="M 22.5 1.265625 C 19.675781 1.265625 17.0625 0.695312 14.65625 -0.4375 C 12.257812 -1.582031 10.171875 -3.171875 8.390625 -5.203125 C 6.617188 -7.242188 5.242188 -9.601562 4.265625 -12.28125 C 3.296875 -14.96875 2.8125 -17.84375 2.8125 -20.90625 C 2.8125 -23.96875 3.304688 -26.832031 4.296875 -29.5 C 5.285156 -32.175781 6.664062 -34.53125 8.4375 -36.5625 C 10.21875 -38.601562 12.300781 -40.195312 14.6875 -41.34375 C 17.070312 -42.5 19.660156 -43.078125 22.453125 -43.078125 C 25.867188 -43.078125 28.90625 -42.335938 31.5625 -40.859375 C 34.21875 -39.378906 36.210938 -37.335938 37.546875 -34.734375 L 37.546875 -41.8125 L 46.90625 -41.8125 L 46.90625 0 L 37.546875 0 L 37.546875 -7.03125 C 36.191406 -4.425781 34.191406 -2.390625 31.546875 -0.921875 C 28.898438 0.535156 25.882812 1.265625 22.5 1.265625 Z M 24.859375 -7.84375 C 26.566406 -7.84375 28.164062 -8.175781 29.65625 -8.84375 C 31.144531 -9.507812 32.453125 -10.429688 33.578125 -11.609375 C 34.703125 -12.796875 35.578125 -14.179688 36.203125 -15.765625 C 36.828125 -17.347656 37.140625 -19.0625 37.140625 -20.90625 C 37.140625 -22.726562 36.820312 -24.429688 36.1875 -26.015625 C 35.550781 -27.597656 34.675781 -28.984375 33.5625 -30.171875 C 32.445312 -31.367188 31.144531 -32.300781 29.65625 -32.96875 C 28.164062 -33.632812 26.566406 -33.96875 24.859375 -33.96875 C 22.609375 -33.96875 20.550781 -33.425781 18.6875 -32.34375 C 16.832031 -31.257812 15.347656 -29.738281 14.234375 -27.78125 C 13.117188 -25.832031 12.5625 -23.539062 12.5625 -20.90625 C 12.5625 -18.195312 13.125 -15.863281 14.25 -13.90625 C 15.382812 -11.957031 16.882812 -10.457031 18.75 -9.40625 C 20.625 -8.363281 22.660156 -7.84375 24.859375 -7.84375 Z M 24.859375 -7.84375 "/></g></g></g></g></g><g clip-path="url(#36b215685a)"><g clip-path="url(#e40010b30e)"><g clip-path="url(#6f84f21e18)"><g transform="matrix(1, 0, 0, 1, 41, 4)"><g clip-path="url(#9aebfd634f)"><g clip-path="url(#8b210897e8)"><g clip-path="url(#e6604baa7e)"><g clip-path="url(#adb901618e)"><path fill="#c4ff0d" d="M 31.714844 -3.78125 L 52.472656 8.4375 L 16.484375 69.578125 L -4.277344 57.359375 Z M 31.714844 -3.78125 " fill-opacity="1" fill-rule="nonzero"/></g></g></g></g></g></g></g></g><g clip-path="url(#4d5a67a271)"><g clip-path="url(#1766bb8023)"><g clip-path="url(#7046c142ce)"><g transform="matrix(1, 0, 0, 1, 45, 45)"><g clip-path="url(#7dc7351db8)"><g clip-path="url(#5423462048)"><g clip-path="url(#d1276c4857)"><g clip-path="url(#95d9975d37)"><path fill="#ffffff" d="M 32.34375 -3.632812 L 53.265625 8.679688 L 17.28125 69.8125 L -3.640625 57.496094 Z M 32.34375 -3.632812 " fill-opacity="1" fill-rule="nonzero"/></g></g></g></g></g></g></g></g><g clip-path="url(#698796544e)"><g clip-path="url(#8c1771c4ae)"><g transform="matrix(1, 0, 0, 1, 343, 67)"><g clip-path="url(#402d4af926)"><g clip-path="url(#7dfa1247e0)"><g clip-path="url(#695ec399b9)"><path fill="#c4ff0d" d="M 0.503906 0.835938 L 20.976562 0.835938 L 20.976562 21.308594 L 0.503906 21.308594 Z M 0.503906 0.835938 " fill-opacity="1" fill-rule="nonzero"/></g></g></g></g></g></g></g></g></svg>