<svg xmlns="http://www.w3.org/2000/svg" xmlns:xlink="http://www.w3.org/1999/xlink" width="500" zoomAndPan="magnify" viewBox="0 0 375 374.999991" height="500" preserveAspectRatio="xMidYMid meet" version="1.0"><defs><clipPath id="de0ed4cfe3"><path d="M 37 14 L 184 14 L 184 212 L 37 212 Z M 37 14 " clip-rule="nonzero"/></clipPath><clipPath id="1e6511764d"><path d="M 133.339844 0.917969 L 197.171875 38.492188 L 87.386719 224.996094 L 23.558594 187.421875 Z M 133.339844 0.917969 " clip-rule="nonzero"/></clipPath><clipPath id="14a1cdb443"><path d="M 165.253906 19.703125 C 173.71875 24.6875 179.859375 32.828125 182.320312 42.335938 C 184.78125 51.84375 183.367188 61.941406 178.382812 70.40625 L 106.222656 193 C 101.238281 201.464844 93.097656 207.601562 83.589844 210.0625 C 74.082031 212.527344 63.984375 211.109375 55.519531 206.128906 C 47.054688 201.144531 40.917969 193.003906 38.453125 183.496094 C 35.992188 173.988281 37.410156 163.890625 42.390625 155.425781 L 114.554688 32.832031 C 119.535156 24.367188 127.675781 18.230469 137.183594 15.769531 C 146.695312 13.304688 156.789062 14.722656 165.253906 19.703125 Z M 165.253906 19.703125 " clip-rule="nonzero"/></clipPath><clipPath id="3cc3688003"><path d="M 0 0 L 147 0 L 147 198 L 0 198 Z M 0 0 " clip-rule="nonzero"/></clipPath><clipPath id="4102495cc7"><path d="M 96.339844 -13.082031 L 160.171875 24.492188 L 50.386719 210.996094 L -13.441406 173.421875 Z M 96.339844 -13.082031 " clip-rule="nonzero"/></clipPath><clipPath id="f43a93741b"><path d="M 128.253906 5.703125 C 136.71875 10.6875 142.859375 18.828125 145.320312 28.335938 C 147.78125 37.84375 146.367188 47.941406 141.382812 56.40625 L 69.222656 179 C 64.238281 187.464844 56.097656 193.601562 46.589844 196.0625 C 37.082031 198.527344 26.984375 197.109375 18.519531 192.128906 C 10.054688 187.144531 3.917969 179.003906 1.453125 169.496094 C -1.007812 159.988281 0.410156 149.890625 5.390625 141.425781 L 77.554688 18.832031 C 82.535156 10.367188 90.675781 4.230469 100.183594 1.769531 C 109.695312 -0.695312 119.789062 0.722656 128.253906 5.703125 Z M 128.253906 5.703125 " clip-rule="nonzero"/></clipPath><clipPath id="8fd965c9b2"><rect x="0" width="147" y="0" height="198"/></clipPath><clipPath id="43a19bf7b9"><path d="M 0.5 36.449219 L 76.808594 36.449219 L 76.808594 112.757812 L 0.5 112.757812 Z M 0.5 36.449219 " clip-rule="nonzero"/></clipPath><clipPath id="6fb0126738"><path d="M 38.652344 36.449219 C 17.582031 36.449219 0.5 53.53125 0.5 74.605469 C 0.5 95.675781 17.582031 112.757812 38.652344 112.757812 C 59.726562 112.757812 76.808594 95.675781 76.808594 74.605469 C 76.808594 53.53125 59.726562 36.449219 38.652344 36.449219 Z M 38.652344 36.449219 " clip-rule="nonzero"/></clipPath><clipPath id="f54e923903"><path d="M 0.5 0.449219 L 76.808594 0.449219 L 76.808594 76.757812 L 0.5 76.757812 Z M 0.5 0.449219 " clip-rule="nonzero"/></clipPath><clipPath id="7d2c6dc909"><path d="M 38.652344 0.449219 C 17.582031 0.449219 0.5 17.53125 0.5 38.605469 C 0.5 59.675781 17.582031 76.757812 38.652344 76.757812 C 59.726562 76.757812 76.808594 59.675781 76.808594 38.605469 C 76.808594 17.53125 59.726562 0.449219 38.652344 0.449219 Z M 38.652344 0.449219 " clip-rule="nonzero"/></clipPath><clipPath id="2bd18844a4"><rect x="0" width="77" y="0" height="77"/></clipPath><clipPath id="0dfa32d6ee"><path d="M 124 14 L 271 14 L 271 212 L 124 212 Z M 124 14 " clip-rule="nonzero"/></clipPath><clipPath id="c1097a06b9"><path d="M 220.375 0.90625 L 283.707031 38.1875 L 173.90625 224.722656 L 110.570312 187.445312 Z M 220.375 0.90625 " clip-rule="nonzero"/></clipPath><clipPath id="5d18ce8dbb"><path d="M 252.042969 19.546875 C 260.441406 24.492188 266.53125 32.566406 268.972656 42.003906 C 271.417969 51.4375 270.011719 61.457031 265.066406 69.855469 L 192.613281 192.945312 C 187.667969 201.34375 179.589844 207.433594 170.15625 209.875 C 160.722656 212.320312 150.703125 210.914062 142.304688 205.96875 C 133.90625 201.027344 127.816406 192.949219 125.375 183.515625 C 122.929688 174.082031 124.335938 164.0625 129.277344 155.664062 L 201.734375 32.574219 C 206.679688 24.175781 214.753906 18.085938 224.191406 15.640625 C 233.625 13.199219 243.640625 14.601562 252.042969 19.546875 Z M 252.042969 19.546875 " clip-rule="nonzero"/></clipPath><clipPath id="c5b01ef0d5"><path d="M 0 0 L 147 0 L 147 198 L 0 198 Z M 0 0 " clip-rule="nonzero"/></clipPath><clipPath id="04e4b1404e"><path d="M 96.375 -13.09375 L 159.707031 24.1875 L 49.90625 210.722656 L -13.429688 173.445312 Z M 96.375 -13.09375 " clip-rule="nonzero"/></clipPath><clipPath id="d9eaabb49b"><path d="M 128.042969 5.546875 C 136.441406 10.492188 142.53125 18.566406 144.972656 28.003906 C 147.417969 37.4375 146.011719 47.457031 141.066406 55.855469 L 68.613281 178.945312 C 63.667969 187.34375 55.589844 193.433594 46.15625 195.875 C 36.722656 198.320312 26.703125 196.914062 18.304688 191.96875 C 9.90625 187.027344 3.816406 178.949219 1.375 169.515625 C -1.070312 160.082031 0.335938 150.0625 5.277344 141.664062 L 77.734375 18.574219 C 82.679688 10.175781 90.753906 4.085938 100.191406 1.640625 C 109.625 -0.800781 119.640625 0.601562 128.042969 5.546875 Z M 128.042969 5.546875 " clip-rule="nonzero"/></clipPath><clipPath id="ff67662db9"><rect x="0" width="147" y="0" height="198"/></clipPath><clipPath id="607bdd57bc"><path d="M 138 140 L 285 140 L 285 337 L 138 337 Z M 138 140 " clip-rule="nonzero"/></clipPath><clipPath id="f78fc90c46"><path d="M 234.503906 126.445312 L 298.332031 164.015625 L 188.550781 350.519531 L 124.71875 312.949219 Z M 234.503906 126.445312 " clip-rule="nonzero"/></clipPath><clipPath id="2f387e6d5a"><path d="M 266.417969 145.230469 C 274.882812 150.210938 281.019531 158.355469 283.480469 167.863281 C 285.945312 177.371094 284.527344 187.46875 279.546875 195.933594 L 207.382812 318.523438 C 202.402344 326.988281 194.261719 333.128906 184.75 335.589844 C 175.242188 338.050781 165.144531 336.636719 156.683594 331.652344 C 148.21875 326.671875 142.078125 318.53125 139.617188 309.023438 C 137.15625 299.511719 138.570312 289.417969 143.554688 280.953125 L 215.714844 158.359375 C 220.699219 149.894531 228.839844 143.757812 238.347656 141.292969 C 247.855469 138.832031 257.953125 140.246094 266.417969 145.230469 Z M 266.417969 145.230469 " clip-rule="nonzero"/></clipPath><clipPath id="ee20ae7422"><path d="M 0 0 L 147 0 L 147 197 L 0 197 Z M 0 0 " clip-rule="nonzero"/></clipPath><clipPath id="7f2a6f9b96"><path d="M 96.503906 -13.554688 L 160.332031 24.015625 L 50.550781 210.519531 L -13.28125 172.949219 Z M 96.503906 -13.554688 " clip-rule="nonzero"/></clipPath><clipPath id="483d213210"><path d="M 128.417969 5.230469 C 136.882812 10.210938 143.019531 18.355469 145.480469 27.863281 C 147.945312 37.371094 146.527344 47.46875 141.546875 55.933594 L 69.382812 178.523438 C 64.402344 186.988281 56.261719 193.128906 46.75 195.589844 C 37.242188 198.050781 27.144531 196.636719 18.683594 191.652344 C 10.21875 186.671875 4.078125 178.53125 1.617188 169.023438 C -0.84375 159.511719 0.570312 149.417969 5.554688 140.953125 L 77.714844 18.359375 C 82.699219 9.894531 90.839844 3.757812 100.347656 1.292969 C 109.855469 -1.167969 119.953125 0.246094 128.417969 5.230469 Z M 128.417969 5.230469 " clip-rule="nonzero"/></clipPath><clipPath id="eeb756ae22"><rect x="0" width="147" y="0" height="197"/></clipPath><clipPath id="1e9d7bf05e"><rect x="0" width="299" y="0" height="351"/></clipPath></defs><g transform="matrix(1, 0, 0, 1, 37, 19)"><g clip-path="url(#1e9d7bf05e)"><g clip-path="url(#de0ed4cfe3)"><g clip-path="url(#1e6511764d)"><g clip-path="url(#14a1cdb443)"><g transform="matrix(1, 0, 0, 1, 37, 14)"><g clip-path="url(#8fd965c9b2)"><g clip-path="url(#3cc3688003)"><g clip-path="url(#4102495cc7)"><g clip-path="url(#f43a93741b)"><path fill="#ffffff" d="M 96.339844 -13.082031 L 160.171875 24.492188 L 50.386719 210.996094 L -13.441406 173.421875 Z M 96.339844 -13.082031 " fill-opacity="1" fill-rule="nonzero"/></g></g></g></g></g></g></g></g><g clip-path="url(#43a19bf7b9)"><g clip-path="url(#6fb0126738)"><g transform="matrix(1, 0, 0, 1, 0, 36)"><g clip-path="url(#2bd18844a4)"><g clip-path="url(#f54e923903)"><g clip-path="url(#7d2c6dc909)"><path fill="#c4ff0d" d="M 0.5 0.449219 L 76.808594 0.449219 L 76.808594 76.757812 L 0.5 76.757812 Z M 0.5 0.449219 " fill-opacity="1" fill-rule="nonzero"/></g></g></g></g></g></g><g clip-path="url(#0dfa32d6ee)"><g clip-path="url(#c1097a06b9)"><g clip-path="url(#5d18ce8dbb)"><g transform="matrix(1, 0, 0, 1, 124, 14)"><g clip-path="url(#ff67662db9)"><g clip-path="url(#c5b01ef0d5)"><g clip-path="url(#04e4b1404e)"><g clip-path="url(#d9eaabb49b)"><path fill="#c4ff0d" d="M 96.375 -13.09375 L 159.707031 24.1875 L 49.90625 210.722656 L -13.429688 173.445312 Z M 96.375 -13.09375 " fill-opacity="1" fill-rule="nonzero"/></g></g></g></g></g></g></g></g><g clip-path="url(#607bdd57bc)"><g clip-path="url(#f78fc90c46)"><g clip-path="url(#2f387e6d5a)"><g transform="matrix(1, 0, 0, 1, 138, 140)"><g clip-path="url(#eeb756ae22)"><g clip-path="url(#ee20ae7422)"><g clip-path="url(#7f2a6f9b96)"><g clip-path="url(#483d213210)"><path fill="#ffffff" d="M 96.503906 -13.554688 L 160.332031 24.015625 L 50.550781 210.519531 L -13.28125 172.949219 Z M 96.503906 -13.554688 " fill-opacity="1" fill-rule="nonzero"/></g></g></g></g></g></g></g></g></g></g></svg>