<svg xmlns="http://www.w3.org/2000/svg" xmlns:xlink="http://www.w3.org/1999/xlink" width="500" zoomAndPan="magnify" viewBox="0 0 375 374.999991" height="500" preserveAspectRatio="xMidYMid meet" version="1.0"><defs><clipPath id="cbec1ee6d2"><path d="M 41.335938 52.980469 L 209.519531 52.980469 L 209.519531 151.507812 L 41.335938 151.507812 Z M 41.335938 52.980469 " clip-rule="nonzero"/></clipPath><clipPath id="ddf909362f"><path d="M 58.585938 52.980469 L 192.226562 52.980469 C 201.753906 52.980469 209.476562 60.707031 209.476562 70.230469 L 209.476562 134.257812 C 209.476562 143.785156 201.753906 151.507812 192.226562 151.507812 L 58.585938 151.507812 C 49.058594 151.507812 41.335938 143.785156 41.335938 134.257812 L 41.335938 70.230469 C 41.335938 60.707031 49.058594 52.980469 58.585938 52.980469 Z M 58.585938 52.980469 " clip-rule="nonzero"/></clipPath><clipPath id="e85217bf7f"><path d="M 0.335938 0.980469 L 168.519531 0.980469 L 168.519531 99.507812 L 0.335938 99.507812 Z M 0.335938 0.980469 " clip-rule="nonzero"/></clipPath><clipPath id="06f9b337ce"><path d="M 17.585938 0.980469 L 151.226562 0.980469 C 160.753906 0.980469 168.476562 8.707031 168.476562 18.230469 L 168.476562 82.257812 C 168.476562 91.785156 160.753906 99.507812 151.226562 99.507812 L 17.585938 99.507812 C 8.058594 99.507812 0.335938 91.785156 0.335938 82.257812 L 0.335938 18.230469 C 0.335938 8.707031 8.058594 0.980469 17.585938 0.980469 Z M 17.585938 0.980469 " clip-rule="nonzero"/></clipPath><clipPath id="335ba13aec"><rect x="0" width="169" y="0" height="100"/></clipPath><clipPath id="8b4b1feb96"><path d="M 162.628906 52.980469 L 330.8125 52.980469 L 330.8125 151.507812 L 162.628906 151.507812 Z M 162.628906 52.980469 " clip-rule="nonzero"/></clipPath><clipPath id="c3d6825ea2"><path d="M 179.878906 52.980469 L 313.519531 52.980469 C 323.046875 52.980469 330.769531 60.707031 330.769531 70.230469 L 330.769531 134.257812 C 330.769531 143.785156 323.046875 151.507812 313.519531 151.507812 L 179.878906 151.507812 C 170.351562 151.507812 162.628906 143.785156 162.628906 134.257812 L 162.628906 70.230469 C 162.628906 60.707031 170.351562 52.980469 179.878906 52.980469 Z M 179.878906 52.980469 " clip-rule="nonzero"/></clipPath><clipPath id="dc450965bf"><path d="M 0.628906 0.980469 L 168.8125 0.980469 L 168.8125 99.507812 L 0.628906 99.507812 Z M 0.628906 0.980469 " clip-rule="nonzero"/></clipPath><clipPath id="6db2b064c8"><path d="M 17.878906 0.980469 L 151.519531 0.980469 C 161.046875 0.980469 168.769531 8.707031 168.769531 18.230469 L 168.769531 82.257812 C 168.769531 91.785156 161.046875 99.507812 151.519531 99.507812 L 17.878906 99.507812 C 8.351562 99.507812 0.628906 91.785156 0.628906 82.257812 L 0.628906 18.230469 C 0.628906 8.707031 8.351562 0.980469 17.878906 0.980469 Z M 17.878906 0.980469 " clip-rule="nonzero"/></clipPath><clipPath id="ae1ae57efe"><rect x="0" width="169" y="0" height="100"/></clipPath><clipPath id="5b22079133"><path d="M 185.929688 151.507812 L 354.113281 151.507812 L 354.113281 250.03125 L 185.929688 250.03125 Z M 185.929688 151.507812 " clip-rule="nonzero"/></clipPath><clipPath id="3fef43aba4"><path d="M 203.179688 151.507812 L 336.824219 151.507812 C 346.351562 151.507812 354.074219 159.230469 354.074219 168.757812 L 354.074219 232.78125 C 354.074219 242.308594 346.351562 250.03125 336.824219 250.03125 L 203.179688 250.03125 C 193.652344 250.03125 185.929688 242.308594 185.929688 232.78125 L 185.929688 168.757812 C 185.929688 159.230469 193.652344 151.507812 203.179688 151.507812 Z M 203.179688 151.507812 " clip-rule="nonzero"/></clipPath><clipPath id="cf8ec0044d"><path d="M 0.929688 0.507812 L 169.113281 0.507812 L 169.113281 99.03125 L 0.929688 99.03125 Z M 0.929688 0.507812 " clip-rule="nonzero"/></clipPath><clipPath id="b969c81652"><path d="M 18.179688 0.507812 L 151.824219 0.507812 C 161.351562 0.507812 169.074219 8.230469 169.074219 17.757812 L 169.074219 81.78125 C 169.074219 91.308594 161.351562 99.03125 151.824219 99.03125 L 18.179688 99.03125 C 8.652344 99.03125 0.929688 91.308594 0.929688 81.78125 L 0.929688 17.757812 C 0.929688 8.230469 8.652344 0.507812 18.179688 0.507812 Z M 18.179688 0.507812 " clip-rule="nonzero"/></clipPath><clipPath id="54c4e9174f"><rect x="0" width="170" y="0" height="100"/></clipPath><clipPath id="1222fe2bd2"><path d="M 58.386719 151.507812 L 226.570312 151.507812 L 226.570312 250.03125 L 58.386719 250.03125 Z M 58.386719 151.507812 " clip-rule="nonzero"/></clipPath><clipPath id="17a6e7e085"><path d="M 75.636719 151.507812 L 209.28125 151.507812 C 218.808594 151.507812 226.53125 159.230469 226.53125 168.757812 L 226.53125 232.78125 C 226.53125 242.308594 218.808594 250.03125 209.28125 250.03125 L 75.636719 250.03125 C 66.113281 250.03125 58.386719 242.308594 58.386719 232.78125 L 58.386719 168.757812 C 58.386719 159.230469 66.113281 151.507812 75.636719 151.507812 Z M 75.636719 151.507812 " clip-rule="nonzero"/></clipPath><clipPath id="2caa46878e"><path d="M 0.386719 0.507812 L 168.558594 0.507812 L 168.558594 99.03125 L 0.386719 99.03125 Z M 0.386719 0.507812 " clip-rule="nonzero"/></clipPath><clipPath id="fae54e3c92"><path d="M 17.636719 0.507812 L 151.28125 0.507812 C 160.808594 0.507812 168.53125 8.230469 168.53125 17.757812 L 168.53125 81.78125 C 168.53125 91.308594 160.808594 99.03125 151.28125 99.03125 L 17.636719 99.03125 C 8.113281 99.03125 0.386719 91.308594 0.386719 81.78125 L 0.386719 17.757812 C 0.386719 8.230469 8.113281 0.507812 17.636719 0.507812 Z M 17.636719 0.507812 " clip-rule="nonzero"/></clipPath><clipPath id="e46205b4de"><rect x="0" width="169" y="0" height="100"/></clipPath><clipPath id="1e7f77c6ce"><path d="M 19.355469 249.28125 L 187.539062 249.28125 L 187.539062 347.804688 L 19.355469 347.804688 Z M 19.355469 249.28125 " clip-rule="nonzero"/></clipPath><clipPath id="f9195b01a4"><path d="M 36.605469 249.28125 L 170.25 249.28125 C 179.777344 249.28125 187.5 257.003906 187.5 266.53125 L 187.5 330.554688 C 187.5 340.082031 179.777344 347.804688 170.25 347.804688 L 36.605469 347.804688 C 27.078125 347.804688 19.355469 340.082031 19.355469 330.554688 L 19.355469 266.53125 C 19.355469 257.003906 27.078125 249.28125 36.605469 249.28125 Z M 36.605469 249.28125 " clip-rule="nonzero"/></clipPath><clipPath id="13775c7dde"><path d="M 0.355469 0.28125 L 168.539062 0.28125 L 168.539062 98.804688 L 0.355469 98.804688 Z M 0.355469 0.28125 " clip-rule="nonzero"/></clipPath><clipPath id="5dfc6892ed"><path d="M 17.605469 0.28125 L 151.25 0.28125 C 160.777344 0.28125 168.5 8.003906 168.5 17.53125 L 168.5 81.554688 C 168.5 91.082031 160.777344 98.804688 151.25 98.804688 L 17.605469 98.804688 C 8.078125 98.804688 0.355469 91.082031 0.355469 81.554688 L 0.355469 17.53125 C 0.355469 8.003906 8.078125 0.28125 17.605469 0.28125 Z M 17.605469 0.28125 " clip-rule="nonzero"/></clipPath><clipPath id="7e9f410870"><rect x="0" width="169" y="0" height="99"/></clipPath><clipPath id="b07831fafc"><path d="M 150.351562 249.28125 L 318.535156 249.28125 L 318.535156 347.804688 L 150.351562 347.804688 Z M 150.351562 249.28125 " clip-rule="nonzero"/></clipPath><clipPath id="c27a178fab"><path d="M 167.601562 249.28125 L 301.246094 249.28125 C 310.773438 249.28125 318.496094 257.003906 318.496094 266.53125 L 318.496094 330.554688 C 318.496094 340.082031 310.773438 347.804688 301.246094 347.804688 L 167.601562 347.804688 C 158.078125 347.804688 150.351562 340.082031 150.351562 330.554688 L 150.351562 266.53125 C 150.351562 257.003906 158.078125 249.28125 167.601562 249.28125 Z M 167.601562 249.28125 " clip-rule="nonzero"/></clipPath><clipPath id="cce89b1764"><path d="M 0.351562 0.28125 L 168.535156 0.28125 L 168.535156 98.804688 L 0.351562 98.804688 Z M 0.351562 0.28125 " clip-rule="nonzero"/></clipPath><clipPath id="65049be706"><path d="M 17.601562 0.28125 L 151.246094 0.28125 C 160.773438 0.28125 168.496094 8.003906 168.496094 17.53125 L 168.496094 81.554688 C 168.496094 91.082031 160.773438 98.804688 151.246094 98.804688 L 17.601562 98.804688 C 8.078125 98.804688 0.351562 91.082031 0.351562 81.554688 L 0.351562 17.53125 C 0.351562 8.003906 8.078125 0.28125 17.601562 0.28125 Z M 17.601562 0.28125 " clip-rule="nonzero"/></clipPath><clipPath id="bde421a3eb"><rect x="0" width="169" y="0" height="99"/></clipPath></defs><g clip-path="url(#cbec1ee6d2)"><g clip-path="url(#ddf909362f)"><g transform="matrix(1, 0, 0, 1, 41, 52)"><g clip-path="url(#335ba13aec)"><g clip-path="url(#e85217bf7f)"><g clip-path="url(#06f9b337ce)"><path fill="#c4ff0d" d="M 0.335938 0.980469 L 168.519531 0.980469 L 168.519531 99.507812 L 0.335938 99.507812 Z M 0.335938 0.980469 " fill-opacity="1" fill-rule="nonzero"/></g></g></g></g></g></g><g clip-path="url(#8b4b1feb96)"><g clip-path="url(#c3d6825ea2)"><g transform="matrix(1, 0, 0, 1, 162, 52)"><g clip-path="url(#ae1ae57efe)"><g clip-path="url(#dc450965bf)"><g clip-path="url(#6db2b064c8)"><path fill="#d7d8d3" d="M 0.628906 0.980469 L 168.8125 0.980469 L 168.8125 99.507812 L 0.628906 99.507812 Z M 0.628906 0.980469 " fill-opacity="1" fill-rule="nonzero"/></g></g></g></g></g></g><g clip-path="url(#5b22079133)"><g clip-path="url(#3fef43aba4)"><g transform="matrix(1, 0, 0, 1, 185, 151)"><g clip-path="url(#54c4e9174f)"><g clip-path="url(#cf8ec0044d)"><g clip-path="url(#b969c81652)"><path fill="#c4ff0d" d="M 0.929688 0.507812 L 169.113281 0.507812 L 169.113281 99.03125 L 0.929688 99.03125 Z M 0.929688 0.507812 " fill-opacity="1" fill-rule="nonzero"/></g></g></g></g></g></g><g clip-path="url(#1222fe2bd2)"><g clip-path="url(#17a6e7e085)"><g transform="matrix(1, 0, 0, 1, 58, 151)"><g clip-path="url(#e46205b4de)"><g clip-path="url(#2caa46878e)"><g clip-path="url(#fae54e3c92)"><path fill="#d7d8d3" d="M 0.386719 0.507812 L 168.570312 0.507812 L 168.570312 99.03125 L 0.386719 99.03125 Z M 0.386719 0.507812 " fill-opacity="1" fill-rule="nonzero"/></g></g></g></g></g></g><g clip-path="url(#1e7f77c6ce)"><g clip-path="url(#f9195b01a4)"><g transform="matrix(1, 0, 0, 1, 19, 249)"><g clip-path="url(#7e9f410870)"><g clip-path="url(#13775c7dde)"><g clip-path="url(#5dfc6892ed)"><path fill="#c4ff0d" d="M 0.355469 0.28125 L 168.539062 0.28125 L 168.539062 98.804688 L 0.355469 98.804688 Z M 0.355469 0.28125 " fill-opacity="1" fill-rule="nonzero"/></g></g></g></g></g></g><g clip-path="url(#b07831fafc)"><g clip-path="url(#c27a178fab)"><g transform="matrix(1, 0, 0, 1, 150, 249)"><g clip-path="url(#bde421a3eb)"><g clip-path="url(#cce89b1764)"><g clip-path="url(#65049be706)"><path fill="#d7d8d3" d="M 0.351562 0.28125 L 168.535156 0.28125 L 168.535156 98.804688 L 0.351562 98.804688 Z M 0.351562 0.28125 " fill-opacity="1" fill-rule="nonzero"/></g></g></g></g></g></g></svg>